<svg id="eye_on" xmlns="http://www.w3.org/2000/svg" width="24" height="24" viewBox="0 0 24 24">
  <path id="Path_73" data-name="Path 73" d="M22.06,19.315a1,1,0,1,0,1.9-.63c.015.06,0-.005,0-.005a.729.729,0,0,1-.035-.1c-.025-.055-.05-.135-.09-.225-.08-.19-.2-.455-.365-.765a10.735,10.735,0,0,0-1.6-2.27A10.288,10.288,0,0,0,14.01,12a10.288,10.288,0,0,0-7.86,3.325,10.974,10.974,0,0,0-1.6,2.27c-.16.31-.28.575-.36.765-.04.09-.07.17-.09.225,0,.015-.025.12-.045.22s-.035.18-.04.195-.165.665.685.95a1,1,0,0,0,1.26-.63l.005-.005h0l.01-.035c.015-.03.035-.085.06-.155.06-.135.155-.345.285-.6A9.02,9.02,0,0,1,7.62,16.675,8.3,8.3,0,0,1,14.01,14a8.3,8.3,0,0,1,6.39,2.675A9.221,9.221,0,0,1,21.7,18.53c.13.25.225.46.28.6.03.07.05.125.065.155ZM18.01,20a4,4,0,1,0-4,4A4,4,0,0,0,18.01,20Z" transform="translate(-2.01 -6)" fill="#919191"/>
  <path id="Path_74" data-name="Path 74" d="M24,0H0V24H24Z" fill="none"/>
</svg>
