<svg id="password_icon_nobg" xmlns="http://www.w3.org/2000/svg" width="24" height="24" viewBox="0 0 24 24">
  <path id="Path_83" data-name="Path 83" d="M3,12.75A3.751,3.751,0,0,1,6.75,9h13.5A3.751,3.751,0,0,1,24,12.75v6a3.751,3.751,0,0,1-3.75,3.75H6.75A3.751,3.751,0,0,1,3,18.75Zm6.22.97-.97.97-.97-.97a.75.75,0,0,0-1.06,1.06l.97.97-.97.97a.75.75,0,0,0,1.06,1.06l.97-.97.97.97a.75.75,0,1,0,1.06-1.06l-.97-.97.97-.97a.75.75,0,1,0-1.06-1.06Zm6,0-.97.97-.97-.97a.75.75,0,0,0-1.06,1.06l.97.97-.97.97a.75.75,0,0,0,1.06,1.06l.97-.97.97.97a.75.75,0,1,0,1.06-1.06l-.97-.97.97-.97a.75.75,0,1,0-1.06-1.06ZM18,17.25a.749.749,0,0,0,.75.75h1.5a.75.75,0,0,0,0-1.5h-1.5A.749.749,0,0,0,18,17.25Z" transform="translate(-1.5 -4.5)" fill="#919191"/>
  <path id="Path_84" data-name="Path 84" d="M0,0H24V24H0Z" fill="none"/>
</svg>
