<svg id="person_icon_bg" xmlns="http://www.w3.org/2000/svg" width="40" height="40" viewBox="0 0 40 40">
  <circle id="Ellipse_1" data-name="Ellipse 1" cx="20" cy="20" r="20" fill="#2c2f42"/>
  <g id="Person" transform="translate(8 8)">
    <path id="Path_69" data-name="Path 69" d="M16,4a4,4,0,1,0,4,4A4,4,0,0,0,16,4Zm5,10H11a3,3,0,0,0-3,3,6.5,6.5,0,0,0,2.425,5.23A8.859,8.859,0,0,0,16,24a8.859,8.859,0,0,0,5.575-1.77A6.5,6.5,0,0,0,24,17,3,3,0,0,0,21,14Z" transform="translate(-4 -2)" fill="#919191"/>
    <path id="Path_70" data-name="Path 70" d="M0,0H24V24H0Z" fill="none"/>
  </g>
</svg>
