<svg id="support_icon" xmlns="http://www.w3.org/2000/svg" width="24" height="24" viewBox="0 0 24 24">
  <path id="Path_113" data-name="Path 113" d="M10.57,16.2a2.168,2.168,0,0,0-2.17,2.17V19.2h.005a4.229,4.229,0,0,0,1.35,3.07C10.9,23.315,12.88,24,16.2,24s5.3-.685,6.445-1.73A4.229,4.229,0,0,0,24,19.2h0v-.825a2.168,2.168,0,0,0-2.17-2.17ZM20.4,6a1.8,1.8,0,0,1,1.8,1.8v4.8a1.8,1.8,0,0,1-1.8,1.8H12a1.8,1.8,0,0,1-1.8-1.8V7.8A1.8,1.8,0,0,1,12,6h3.6V5.4a.577.577,0,0,1,.6-.6.605.605,0,0,1,.6.6V6Zm-.6,4.2a1.2,1.2,0,1,0-1.2,1.2A1.2,1.2,0,0,0,19.8,10.2Zm-4.8,0a1.2,1.2,0,1,0-1.2,1.2A1.2,1.2,0,0,0,15,10.2Z" transform="translate(-4.2 -2.4)" fill="#919191"/>
  <path id="Path_114" data-name="Path 114" d="M24,0H0V24H24Z" fill="none"/>
</svg>
